Coordinates
version=1
nRows=13
nColumns=40
inDegrees=yes

Units are S.I. units (second, meters, Newtons, ...)
Angles are in degrees.

endheader
time	pelvis_tilt	pelvis_list	pelvis_rotation	pelvis_tx	pelvis_ty	pelvis_tz	hip_flexion_r	hip_adduction_r	hip_rotation_r	knee_angle_r	knee_angle_r_beta	ankle_angle_r	subtalar_angle_r	mtp_angle_r	hip_flexion_l	hip_adduction_l	hip_rotation_l	knee_angle_l	knee_angle_l_beta	ankle_angle_l	subtalar_angle_l	mtp_angle_l	lumbar_extension	lumbar_bending	lumbar_rotation	arm_flex_r	arm_add_r	arm_rot_r	elbow_flex_r	pro_sup_r	wrist_flex_r	wrist_dev_r	arm_flex_l	arm_add_l	arm_rot_l	elbow_flex_l	pro_sup_l	wrist_flex_l	wrist_dev_l
     32.18000000	     -4.83574682	     -5.34367275	     -1.44882915	      0.71803148	      0.92157054	      0.32409239	     19.87715948	     -5.93679853	     -5.57175921	     56.77628745	     56.77628745	      1.11332515	    -13.54856549	     -6.49071655	     19.41964698	     -4.53952959	     -3.11812094	     29.68206404	     29.68206404	     17.45104522	    -16.79213461	      7.20636724	    -11.36876360	      4.80280233	      4.39138353	     14.70352656	    -12.40427856	     -0.61579205	     29.22607705	     45.85791019	      0.00000000	      0.00000000	     12.78031646	    -15.55733288	      7.40814228	     33.10171531	     45.50390799	      0.00000000	      0.00000000
     32.19785714	     -4.59822118	     -5.41988508	     -1.84925177	      0.71693217	      0.91996685	      0.32315777	     21.53103913	     -5.99793035	     -5.25235195	     59.30078804	     59.30078804	      0.74846888	    -14.55428161	     -6.26322526	     19.28784975	     -4.60171184	     -3.18843591	     30.64943856	     30.64943856	     18.03693434	    -17.27975426	      7.04863347	    -11.76940530	      5.05146797	      3.90234484	     12.63043811	    -12.35698589	     -0.56451725	     28.33098489	     45.87787490	      0.00000000	      0.00000000	     13.53620974	    -15.71193384	      7.28765864	     33.52152521	     45.53666329	      0.00000000	      0.00000000
     32.21571429	     -4.35449169	     -5.56192253	     -2.26794584	      0.71584478	      0.91846140	      0.32235872	     23.22461226	     -5.90592040	     -4.89223179	     61.78248427	     61.78248427	      1.69020809	    -14.88416283	     -2.17523596	     19.18096598	     -4.72962949	     -3.21884253	     31.75143506	     31.75143506	     19.31633659	    -17.50343940	      8.57324991	    -12.22748863	      5.36614155	      3.87487945	     10.05060648	    -12.51961957	     -0.96040497	     27.79383644	     45.93434219	      0.00000000	      0.00000000	     14.42583659	    -15.69639526	      6.99963068	     34.37550598	     45.63626581	      0.00000000	      0.00000000
     32.23357143	     -4.18198132	     -5.65830684	     -2.70865582	      0.71474657	      0.91690694	      0.32165920	     24.77466127	     -5.89131793	     -4.62614428	     63.56337189	     63.56337189	      1.54269976	    -15.66627468	     -1.77560580	     19.03417717	     -4.83852109	     -3.37298758	     32.59572305	     32.59572305	     19.90112783	    -17.84449261	      8.38226246	    -12.59333606	      5.64803193	      3.50765248	      7.90342879	    -12.57150227	     -0.99754793	     26.92546561	     45.95928947	      0.00000000	      0.00000000	     15.18609115	    -15.86000453	      6.82811611	     34.95682507	     45.67553771	      0.00000000	      0.00000000
     32.25142857	     -4.03727703	     -5.79321704	     -3.20292953	      0.71367808	      0.91566908	      0.32131172	     26.22166597	     -5.78683181	     -4.39760622	     64.77071228	     64.77071228	      1.65140737	    -16.21545322	     -1.05243997	     18.79668787	     -5.02829570	     -3.62176771	     33.25427167	     33.25427167	     20.50013668	    -18.06601756	      8.42764688	    -12.97333892	      5.89871159	      3.35934997	      5.73911759	    -12.68789687	     -1.11480856	     26.08108674	     45.98983595	      0.00000000	      0.00000000	     16.00490616	    -15.88501621	      6.60434335	     35.76376671	     45.72361450	      0.00000000	      0.00000000
     32.26928571	     -3.88584568	     -5.87049677	     -3.69565114	      0.71272777	      0.91484017	      0.32113357	     27.58748970	     -5.68911933	     -4.13528224	     65.51836816	     65.51836816	      3.16464924	    -15.96091471	      3.10308191	     18.50937719	     -5.12907314	     -3.80800387	     33.86776606	     33.86776606	     21.58212510	    -18.12781480	      9.93770638	    -13.39422893	      6.17123665	      3.33109722	      3.30766868	    -12.66800393	     -2.59541000	     26.07682932	     46.11434512	      0.00000000	      0.00000000	     16.48027372	    -16.00987404	      5.70874873	     37.47871591	     45.88396419	      0.00000000	      0.00000000
     32.28714286	     -3.88621145	     -5.93208466	     -4.25755575	      0.71176936	      0.91423477	      0.32138108	     28.83602032	     -5.60839109	     -3.99350033	     65.28362057	     65.28362057	      3.50462803	    -16.11969157	      3.14616844	     18.18657674	     -5.28568291	     -4.18441470	     34.08072788	     34.08072788	     21.97100640	    -18.25168068	      9.86851935	    -13.60243170	      6.36492367	      3.24817533	      1.43253309	    -12.69033335	     -2.75971425	     25.21577615	     46.15229961	      0.00000000	      0.00000000	     17.24083405	    -16.09917030	      5.44254074	     38.19499827	     45.93414071	      0.00000000	      0.00000000
     32.30500000	     -3.90217337	     -6.00710607	     -4.85431412	      0.71086233	      0.91420633	      0.32206086	     29.89066453	     -5.44268360	     -3.89407507	     64.24412348	     64.24412348	      3.99106598	    -16.08746590	      3.11775884	     17.71656675	     -5.48370796	     -4.63239957	     34.00334565	     34.00334565	     22.27400469	    -18.31424629	      9.96244823	    -13.83713932	      6.53741497	      3.32447917	     -0.40174897	    -12.68771049	     -3.10483810	     24.54403501	     46.19928081	      0.00000000	      0.00000000	     17.94134990	    -16.14963486	      4.99170117	     39.31519981	     46.00740270	      0.00000000	      0.00000000
     32.32285714	     -4.01180239	     -6.06006156	     -5.48987893	      0.70996105	      0.91459763	      0.32315345	     30.82089720	     -5.23326872	     -3.83625144	     62.38204353	     62.38204353	      4.52659901	    -15.80691994	      2.76361061	     17.20254559	     -5.68060049	     -5.12621668	     33.65714922	     33.65714922	     22.48488646	    -18.33210728	     10.09046787	    -13.98036659	      6.65793550	      3.35454300	     -2.08145192	    -12.60258340	     -3.60767034	     24.14167380	     46.25031530	      0.00000000	      0.00000000	     18.48344210	    -16.23140944	      4.36081654	     40.71872122	     46.09951422	      0.00000000	      0.00000000
     32.34071429	     -4.27957199	     -6.09215685	     -6.11601441	      0.70908611	      0.91529347	      0.32462297	     31.66723887	     -4.97291141	     -3.86831641	     59.71309712	     59.71309712	      5.14061022	    -15.27443918	      2.47597449	     16.74875985	     -5.88040001	     -5.65139278	     33.09481188	     33.09481188	     22.55520009	    -18.32050173	     10.20894610	    -13.87805515	      6.79693374	      3.08051357	     -3.37546212	    -12.49249480	     -3.83731756	     23.82022413	     46.27388075	      0.00000000	      0.00000000	     18.95584943	    -16.46790263	      3.99065351	     41.53842179	     46.15317142	      0.00000000	      0.00000000
     32.35857143	     -4.55302562	     -6.15436711	     -6.79197001	      0.70825070	      0.91640193	      0.32661689	     32.11524183	     -4.62207228	     -4.03456217	     55.99408069	     55.99408069	      4.59801932	    -14.86370143	     -1.40497558	     16.12659223	     -6.15607224	     -6.29228679	     32.22595887	     32.22595887	     22.35878261	    -18.27419752	      9.84391603	    -13.97969908	      6.83954066	      2.89037272	     -4.95345635	    -12.18490135	     -6.15509546	     24.88688901	     46.42966240	      0.00000000	      0.00000000	     18.27873581	    -16.64187522	      1.29298130	     45.85286675	     46.47267703	      0.00000000	      0.00000000
     32.37642857	     -4.88367468	     -6.19927103	     -7.41383798	      0.70741379	      0.91782937	      0.32893669	     32.41682359	     -4.19356153	     -4.25813620	     51.77580006	     51.77580006	      5.16435725	    -13.43575872	     -1.83741322	     15.47644899	     -6.39516762	     -6.86727668	     31.17593574	     31.17593574	     22.22314850	    -18.18832247	      9.97678847	    -13.86724903	      6.90086373	      2.96353219	     -6.02890164	    -12.07031658	     -6.33756477	     24.48030686	     46.45452031	      0.00000000	      0.00000000	     19.03857972	    -16.72900758	      0.93699561	     46.74712689	     46.52427466	      0.00000000	      0.00000000
     32.39428571	     -5.25748259	     -6.22093504	     -7.99971544	      0.70663850	      0.91928025	      0.33157372	     32.42945249	     -3.72906697	     -4.58034181	     46.89232613	     46.89232613	      5.59558295	    -11.43206520	     -2.59489032	     14.81601798	     -6.61830359	     -7.44181281	     30.01624286	     30.01624286	     21.98528651	    -18.06234290	      9.95254841	    -13.70901806	      6.91155205	      3.11442749	     -7.08965881	    -11.91063398	     -6.62075462	     24.42709581	     46.47152686	      0.00000000	      0.00000000	     19.69147585	    -16.78761245	      0.41061182	     48.25293043	     46.59630838	      0.00000000	      0.00000000
